# xmcd
#
# Track frame offsets:
#	150
#	12530
#	27625
#	48372
#	62447
#	74540
#	84742
#	98567
#	111160
#	124075
#	138487
#	150525
#
# Disc length: 2124 seconds
#
# Revision: 1
# Processed by: cddbd v1.5.2PL0 Copyright (c) Steve Scherf et al.
# Submitted via: audiograbber 1.83.01
#
DISCID=a2084a0c
DTITLE=Nat King Cole Trio - The early years of
DYEAR=1993
DGENRE=Blues
TTITLE0=Got a penny
TTITLE1=All for you
TTITLE2=The bugle call rag
TTITLE3=I'm lost
TTITLE4=Let's sping one
TTITLE5=Beautiful moons ago
TTITLE6=Fine, sweet and tasty
TTITLE7=My lips remember your kisses
TTITLE8=Vom vim veedle
TTITLE9=Let's pretend
TTITLE10=Pichin up the boogie
TTITLE11=Honky tonk town
EXTD=(C) 1993 Sound Hills Records SSCD-8002\nRecorded at CPMacGregor Studio, Cl
EXTD=ub, Los Angeles, 1942-1944
EXTT0=
EXTT1=
EXTT2=
EXTT3=
EXTT4=
EXTT5=
EXTT6=
EXTT7=
EXTT8=
EXTT9=
EXTT10=
EXTT11=
PLAYORDER=
